<?xml version="1.0" encoding="UTF-8" standalone="no"?>
<!-- Created with Inkscape (http://www.inkscape.org/) -->

<svg
   xmlns:dc="http://purl.org/dc/elements/1.1/"
   xmlns:cc="http://creativecommons.org/ns#"
   xmlns:rdf="http://www.w3.org/1999/02/22-rdf-syntax-ns#"
   xmlns:svg="http://www.w3.org/2000/svg"
   xmlns="http://www.w3.org/2000/svg"
   xmlns:sodipodi="http://sodipodi.sourceforge.net/DTD/sodipodi-0.dtd"
   xmlns:inkscape="http://www.inkscape.org/namespaces/inkscape"
   width="2397.3115mm"
   height="2397.3115mm"
   viewBox="0 0 8494.4109 8494.4109"
   id="svg2"
   version="1.1"
   inkscape:version="0.91 r13725"
   sodipodi:docname="pista.svg"
   inkscape:export-filename="/home/sam/Trabajo/CI/seguidor_de_linea/pista.png"
   inkscape:export-xdpi="90"
   inkscape:export-ydpi="90">
  <defs
     id="defs4" />
  <sodipodi:namedview
     id="base"
     pagecolor="#ffffff"
     bordercolor="#666666"
     borderopacity="1.0"
     inkscape:pageopacity="0.0"
     inkscape:pageshadow="2"
     inkscape:zoom="0.04375"
     inkscape:cx="3918.207"
     inkscape:cy="3917.5974"
     inkscape:document-units="px"
     inkscape:current-layer="layer1"
     showgrid="false"
     fit-margin-top="0"
     fit-margin-left="0"
     fit-margin-right="0"
     fit-margin-bottom="0"
     inkscape:window-width="1366"
     inkscape:window-height="709"
     inkscape:window-x="0"
     inkscape:window-y="0"
     inkscape:window-maximized="1" />
  <metadata
     id="metadata7">
    <rdf:RDF>
      <cc:Work
         rdf:about="">
        <dc:format>image/svg+xml</dc:format>
        <dc:type
           rdf:resource="http://purl.org/dc/dcmitype/StillImage" />
        <dc:title></dc:title>
      </cc:Work>
    </rdf:RDF>
  </metadata>
  <g
     inkscape:label="Capa 1"
     inkscape:groupmode="layer"
     id="layer1"
     transform="translate(3100.2188,3187.5552)">
    <rect
       style="opacity:1;fill:#ffffff;fill-opacity:1;stroke:none;stroke-width:9.52566051;stroke-linecap:butt;stroke-linejoin:round;stroke-miterlimit:4;stroke-dasharray:none;stroke-dashoffset:0;stroke-opacity:1"
       id="rect3336"
       width="8494.4111"
       height="8494.4111"
       x="-3100.2188"
       y="-3187.5552" />
    <circle
       style="opacity:1;fill:none;fill-opacity:1;stroke:#000000;stroke-width:180.0239563;stroke-linecap:butt;stroke-linejoin:round;stroke-miterlimit:4;stroke-dasharray:none;stroke-dashoffset:0;stroke-opacity:1"
       id="path4138"
       cx="1146.9868"
       cy="1059.6504"
       r="3010.3818" />
    <g
       id="g4184"
       transform="translate(-2.6600397e-5,-5.8357334e-6)">
      <g
         style="fill:#6cbd45;fill-opacity:1"
         inkscape:label="Capa 1"
         id="layer1-6"
         transform="translate(525.61491,985.48789)">
        <path
           style="fill:#6cbd45;fill-opacity:1"
           d="m 1420.9112,-421.55685 c -23.1066,-10.66451 -35.6834,-24.32419 -49.0031,-53.22185 -9.2531,-20.07594 -10.5008,-29.76444 -10.3147,-80.07956 0.2351,-63.55818 7.6061,-90.87425 34.5633,-128.0874 32.8157,-45.30075 97.5614,-49.04643 143.8285,-8.32084 78.4135,69.02163 62.1617,229.11733 -27.3876,269.79646 -24.399,11.08365 -67.5713,11.0428 -91.6864,-0.0873 z m 88.3343,-43.90061 c 30.5063,-25.66889 46.1726,-97.84663 31.0932,-143.24745 -8.5204,-25.65203 -33.5551,-54.44104 -51.1905,-58.86731 -6.3478,-1.59316 -20.8478,-1.84763 -32.2234,-0.56539 -38.3251,4.31975 -65.516,42.70186 -65.6524,92.6729 -0.1008,34.6561 5.3293,54.18709 22.6182,81.44919 25.176,39.69868 67.1691,52.27522 95.3549,28.55818 z m -636.25976,43.80627 c -16.7591,-1.84854 -36.0133,-6.99194 -42.7861,-11.42977 -16.7486,-10.97374 -31.4998,-45.48497 -31.5012,-73.69532 0,-47.04898 19.0961,-74.98165 67.9261,-99.34918 29.0186,-14.48095 52.8604,-33.76473 52.8604,-42.75419 0,-8.26536 -14.9138,-19.76095 -34.3817,-26.50068 -40.3218,-13.95984 -30.6823,-36.00471 15.6473,-35.78312 37.8848,0.18205 62.408,13.59294 77.0693,42.14938 11.1146,21.64703 16.2662,60.47713 22.55186,169.96858 l 2.8095,48.94399 -14.02006,14.02053 c -8.9892,8.98922 -18.6665,14.03487 -26.9656,14.06034 -7.1202,0.0245 -23.2489,0.87023 -35.8418,1.88517 -12.5929,1.01494 -36.6087,0.33277 -53.368,-1.51573 z m 51.4997,-58.05313 c 15.4099,-14.76407 24.3822,-42.30671 20.1136,-61.74356 -6.4437,-29.33808 -47.6151,-41.87298 -72.7061,-22.13597 -13.9302,10.957 -30.2551,40.39863 -30.2551,54.56289 0,12.71202 11.7634,34.91906 21.7514,41.06373 14.0935,8.67008 46.2358,2.49006 61.0962,-11.74709 z m 166.72086,46.71182 c -29.4499,-13.94615 -49.0193,-34.86075 -64.752,-69.20455 -10.4154,-22.73671 -12.5768,-33.79373 -12.5324,-64.10931 0.077,-47.67781 10.4101,-78.10293 36.3438,-106.94785 26.9191,-29.94053 55.2485,-43.05729 93.6017,-43.33902 33.4132,-0.24605 54.8525,8.38234 67.0362,26.97789 12.1053,18.47398 3.32,23.01018 -31.9699,16.50778 -58.0326,-10.69293 -77.4799,-5.8006 -93.4463,23.50805 -6.3458,11.64896 -7.9623,26.18877 -7.9875,71.84505 0,52.58496 0.9019,58.91641 11.4411,77.84704 15.0261,26.9882 34.3964,36.61748 73.6786,36.62681 23.9692,0.005 31.8432,1.8229 38.1641,8.8074 7.6198,8.4194 7.4761,9.1199 -3.3077,16.18584 -29.176,19.1171 -72.5207,21.27677 -106.2697,5.29487 z m -805.32226,0.50616 c -12.8057,-9.36405 -16.8645,-38.18614 -14.0086,-99.4758 1.4667,-31.48225 0.5649,-71.36771 -2.0003,-88.63438 -7.004,-47.10924 -0.6793,-62.47833 29.8894,-72.62286 32.4493,-10.76866 75.3544,-17.25712 114.3848,-17.29841 31.6357,-0.0305 33.1903,0.49456 46.6875,15.86754 7.6795,8.74624 16.3602,23.68596 19.2902,33.19947 2.9894,9.70707 6.3468,61.63044 7.6495,118.32709 2.1058,91.59945 1.5821,101.77013 -5.6088,108.96135 -20.7408,20.7406 -29.9718,-9.54979 -33.991,-111.53752 -3.3115,-84.02174 -6.4924,-97.46144 -27.5875,-116.5524 -13.6798,-12.37976 -38.3237,-11.62447 -52.4071,1.60616 -23.1312,21.7305 -43.5729,91.89938 -50.8639,174.59654 -5.0822,57.64546 -11.3185,68.27205 -31.4342,53.56322 z m 333.6608,1.84435 c -35.3295,-9.31997 -64.191,-35.24708 -81.9424,-73.61199 -8.0364,-17.36885 -9.6423,-29.60916 -9.6423,-73.50053 0,-48.53779 0.9808,-54.52144 12.5264,-76.41819 17.975,-34.09201 49.3275,-55.49287 106.5338,-72.71854 34.0611,-10.25634 45.352,-19.96633 62.45,-53.70415 15.7244,-31.02572 23.8076,-35.7744 37.53,-22.0478 9.7903,9.79358 9.927,12.09029 10.3101,173.50249 0.2135,89.96765 -1.2394,168.10623 -3.2298,173.64133 -6.9872,19.43195 -24.1692,25.71619 -74.2288,27.14876 -25.6132,0.73269 -52.7513,-0.29856 -60.307,-2.29138 z m 57.094,-39.42473 c 8.3257,-4.30548 17.8848,-16.46317 26.1031,-33.19948 11.6246,-23.67259 12.9203,-30.90998 12.5159,-69.90907 -0.7853,-75.77785 -25.6619,-119.06019 -68.4298,-119.06019 -41.939,0 -72.7542,47.42552 -72.9595,112.28767 -0.1079,32.53822 1.6347,40.28623 15.2235,67.88885 22.2552,45.20708 52.9024,59.90734 87.5468,41.99222 z m 963.21816,39.82916 c -12.3351,-7.84307 -15.9129,-31.66501 -14.5927,-97.14546 0.7405,-36.51942 -0.42,-82.28066 -2.5634,-101.69162 -3.2413,-29.30524 -2.6561,-37.19605 3.4473,-46.51163 12.2753,-18.73457 77.6263,-34.85989 141.5677,-34.93164 27.2765,-0.0305 32.4278,1.41969 44.6043,12.55829 22.0146,20.13759 27.9181,53.5397 28.9767,163.94647 0.85,88.62473 0.3725,94.69661 -7.9849,100.83828 -4.8887,3.59421 -10.3533,6.53507 -12.1448,6.53507 -8.9295,0 -14.8911,-37.04501 -17.6855,-109.90171 -3.6323,-94.68642 -10.8333,-118.98122 -38.719,-130.63287 -47.5234,-19.85649 -78.1487,38.97083 -94.2311,181.00448 -2.7095,23.92651 -6.0285,47.10894 -7.3773,51.51643 -2.5375,8.29959 -13.8253,10.43906 -23.2973,4.41591 z m -1773.70955,-14.992 c -4.29838,-10.37727 -4.98535,-30.54491 -2.64763,-77.76871 3.86254,-78.04162 -0.0768,-97.11445 -22.68473,-110.46695 -24.07931,-14.20736 -21.57896,-40.89321 4.64258,-49.54717 13.40413,-4.42385 15.33744,-7.25881 17.95124,-26.33195 6.64522,-48.48534 39.305935,-84.19209 83.003305,-90.74491 44.7750796,-6.71459 53.00555965,12.81386 14.54756,34.51827 -35.17713,19.8526 -45.73838,32.67402 -46.21835,56.10709 -0.38954,18.89899 0.29,19.84752 21.35229,29.90956 17.48494,8.35334 21.75142,12.66563 21.75142,21.98505 0,8.9637 -3.70687,13.14216 -16.34175,18.42135 -25.33237,10.58451 -29.27358,25.54721 -30.73508,116.69063 -1.14104,71.12637 -2.07363,79.02025 -10.02107,84.83116 -14.864185,10.86909 -28.158455,7.94768 -34.599785,-7.60342 z m 1411.75885,-3.16164 c -5.7628,-13.28325 -7.5251,-33.24622 -7.78,-88.15031 l -0.3279,-70.97818 -17.1722,-25.12462 c -20.2791,-29.67029 -22.6603,-50.6487 -6.9947,-61.62122 25.53,-17.88185 49.3337,-2.04252 60.8458,40.48834 6.6805,24.67952 7.6047,42.75005 5.6836,111.13241 -2.3202,82.56121 -7.539,111.42575 -20.1479,111.42575 -3.6604,0 -10.0072,-7.72744 -14.1048,-17.17217 z m -1233.523465,2.22919 c -26.31773,-17.52944 -32.35632,-36.78996 -39.8190004,-127.00741 -6.55046,-79.20012 -6.49697,-81.16044 2.80882,-102.19723 5.2180204,-11.79641 11.6113804,-21.44816 14.2069504,-21.44816 12.06952,0 17.70802,26.59223 19.41898,91.58475 1.59054,60.43696 2.77428,68.24926 13.17601,87.00551 6.94841,12.52776 18.04455,24.16444 28.30357,29.6814 l 16.87593,9.07495 12.816685,-9.40448 c 31.98502,-23.46976 46.72567,-59.53094 56.50472,-138.23015 5.20051,-41.8513 13.29426,-70.46818 20.60654,-72.85769 2.62,-0.85637 8.3281,1.04895 12.6836,4.23397 6.5622,4.79807 8.9532,19.92353 13.9493,88.21206 6.3504,86.813 4.509,133.61226 -5.7424,145.96465 -3.3933,4.08902 -11.5847,7.48754 -18.2026,7.55214 -6.6176,0.0612 -29.54748,4.13311 -50.95541,9.04094 -52.635935,12.0669 -77.164745,11.76102 -96.631695,-1.20525 z M 1245.6296,-745.15642 c -6.4994,-4.55261 -10.1772,-11.88075 -10.1772,-20.27956 0,-24.92021 23.4134,-35.37553 45.1404,-20.15731 8.2503,5.77875 9.8881,10.01242 7.5308,19.46177 -6.463,25.90204 -23.4725,34.29805 -42.494,20.9751 z m 182.1507,-19.82939 c 0,-32.21238 56.758,-87.52309 89.8125,-87.52309 24.9309,0 19.448,11.29742 -28.1248,57.95136 -46.5038,45.60504 -61.6877,52.88415 -61.6877,29.57173 z"
           id="path6435"
           inkscape:connector-curvature="0"
           sodipodi:nodetypes="ccscsssccccsscscssccsscccscscsscccsscsscsccsscccccscscsccsscscssccsscscssccssssscscccccscscssssccsscssssccssscccccssscscssscsccccssccsccsccsscssss" />
      </g>
      <path
         style="fill:#008dd3;fill-opacity:1"
         d="m 657.58173,1980.2294 c -71.8299,-19.3024 -127.2023,-82.6337 -149.3315,-170.7965 -10.6931,-42.5999 -7.293,-134.7227 6.3433,-171.8636 23.1213,-62.9786 65.786,-113.809 115.1663,-137.209 27.9118,-13.2266 33.5076,-14.2155 80.3724,-14.203 45.8449,0.012 52.7139,1.1625 76.4375,12.8003 51.5582,25.2922 92.618,73.0129 109.5048,127.2695 10.33143,33.1969 11.07163,59.5134 2.15833,76.7507 -9.07153,17.5413 -45.42613,50.1222 -60.01403,53.7835 -6.6672,1.6732 -38.2138,-0.5379 -70.1043,-4.9145 -65.9235,-9.0465 -81.5831,-6.9268 -115.6815,15.659 -54.5693,36.1453 -56.4215,110.565 -3.568,143.3986 27.6312,17.1653 79.159,27.3687 128.8132,25.507 38.6518,-1.4491 40.0706,-1.1468 40.0684,8.5413 0,31.1508 -96.4616,52.3952 -160.1649,35.2767 z m 88.3906,-295.3145 c 54.9701,-36.4105 57.0253,-79.1962 5.7966,-120.659 -15.5228,-12.5637 -20.5173,-14.0027 -48.5949,-14.0027 -24.5936,0 -34.0618,2.0531 -44.2225,9.589 -31.7753,23.5671 -43.7645,74.6254 -23.5556,100.317 5.489,6.978 19.287,18.5896 30.6619,25.8033 28.3263,17.9641 51.6743,17.658 79.9145,-1.0476 z m 638.94957,284.2506 c -45.1116,-7.6195 -68.6239,-26.6413 -90.4561,-73.1799 -10.3391,-22.0395 -11.822,-31.205 -11.8724,-73.3696 -0.077,-45.3582 0.8336,-49.9915 15.123,-79.0121 19.1741,-38.941 39.7516,-56.466 111.5014,-94.9624 30.5785,-16.4066 59.8034,-35.4635 64.9441,-42.3487 14.1111,-18.9005 6.7338,-34.9457 -22.1932,-48.2662 -67.8376,-31.2384 -70.6392,-33.7582 -64.5421,-58.0496 1.6517,-6.5807 8.1695,-12.5466 17.1158,-15.6651 21.4818,-7.4887 85.8217,-6.2213 110.4656,2.1759 61.6007,20.9893 98.8536,94.6111 99.3643,196.3683 0.091,17.5229 3.4358,57.2673 7.4403,88.3212 4.0878,31.7034 6.598,77.3044 5.7242,103.9946 -1.451,44.3046 -2.5018,48.8808 -15.4658,67.3729 -12.1136,17.2784 -17.1386,20.5217 -38.9233,25.1222 -28.2182,5.959 -155.8042,6.9746 -188.2258,1.4985 z m 69.692,-78.4068 c 55.0533,-16.4942 87.6735,-86.0112 64.7153,-137.9124 -10.0002,-22.6063 -23.3396,-32.0592 -52.7633,-37.3896 -24.7341,-4.481 -45.297,3.8296 -66.5654,26.9029 -37.3193,40.4869 -46.8364,80.3992 -27.9838,117.3542 16.3221,31.9931 44.3148,42.5146 82.5972,31.0449 z m -1125.64077,59.0329 c -18.9747,-20.4779 -21.1956,-42.6431 -19.1541,-191.1831 3.7526,-273.069 2.8064,-324.8716 -6.4169,-351.3213 -10.7553,-30.8402 -28.5075,-45.8736 -58.9372,-49.9103 -28.5736,-3.7903 -40.3385,-14.383 -40.3385,-36.3193 0,-27.6631 12.9164,-30.2265 144.1659,-28.6115 101.9438,1.2543 112.1402,2.1052 120.9583,10.0932 10.1041,9.1531 12.8553,31.7495 5.3164,43.6647 -2.4872,3.9313 -12.1707,6.7909 -23.9707,7.0787 -67.3286,1.6428 -73.4921,34.5649 -69.2091,369.6859 l 2.7925,218.5078 -21.7179,9.3093 c -11.9447,5.12 -22.2177,9.3092 -22.8296,9.3092 -0.6107,0 -5.4072,-4.6365 -10.6591,-10.3033 z m 1411.37687,3.911 c -29.5972,-12.8954 -37.6451,-58.3505 -30.0047,-169.4682 4.9724,-72.3201 4.7748,-88.5423 -1.5553,-127.4647 -12.6457,-77.7579 -7.8198,-112.9597 17.7841,-129.7362 27.986,-18.3372 119.7693,-36.353 209.6574,-41.1527 l 56.0873,-2.9948 19.6197,17.0035 c 41.0673,35.5907 49.6602,71.3664 56.388,234.7525 5.5751,135.3803 1.5034,204.7714 -12.6205,215.099 -14.2986,10.4553 -23.1007,6.6954 -31.0937,-13.2816 -13.6622,-34.1444 -17.0707,-63.9248 -20.6142,-180.1405 -3.8724,-127.0006 -8.2274,-150.4891 -33.162,-178.8888 -38.7533,-44.1369 -86.3065,-39.0136 -121.3109,13.0699 -31.0702,46.23 -50.6175,122.8336 -67.1744,263.2479 -9.7217,82.4478 -15.5145,106.7768 -25.2789,106.1678 -1.5807,-0.098 -9.105,-2.8945 -16.7219,-6.2131 z m -796.39724,-22.2279 c -11.0453,-38.7923 -16.2504,-94.2555 -20.7363,-220.9482 -5.9484,-168.0222 -4.2778,-173.7586 55.9576,-192.0797 67.89324,-20.6505 106.11374,-26.5126 160.92964,-24.6828 40.8209,1.3626 54.9324,3.6945 71.555,11.8239 24.6531,12.0565 36.534,30.1237 36.534,55.5575 0,16.0072 -1.9066,19.6236 -13.5103,25.6241 -18.8069,9.7254 -25.9047,8.9131 -59.0241,-6.7549 -57.4466,-27.1769 -82.6056,-14.1339 -121.5742,63.0273 -29.2796,57.9768 -40.2935,103.3953 -46.4403,191.5173 -4.7258,67.7509 -7.5473,86.2891 -15.50534,101.8881 -8.5754,16.81 -11.5999,19.0684 -25.5338,19.0684 -15.1458,0 -16.0931,-1.0046 -22.6519,-24.041 z M 1421.059,1437.6951 c -12.6541,-7.3702 -9.7028,-31.66 8.1914,-67.4294 27.2525,-54.4743 84.7303,-100.7985 130.5289,-105.1991 45.1735,-4.3406 49.652,19.8401 10.2696,55.4569 -14.391,13.0152 -43.6965,41.8855 -65.1229,64.1563 -21.4261,22.2708 -46.6616,44.4228 -56.0779,49.2268 -19.768,10.0848 -17.508,9.7767 -27.7891,3.7885 z m -29.1539,-248.7977 c -69.0693,-16.7622 -111.2104,-70.4135 -128.0034,-162.9669 -17.8476,-98.37081 1.6508,-204.51881 51.4729,-280.20921 35.9646,-54.6369 76.0376,-74.9164 141.2727,-71.4924 30.7197,1.6123 43.4858,4.72 67.0071,16.3114 89.8752,44.2904 141.4763,157.159 127.65,279.2104 C 1633.508,1126.85 1522.5386,1220.6 1391.9051,1188.8974 Z m 115.4724,-84.3282 c 46.5227,-33.7243 78.4254,-148.62861 61.3648,-221.01861 -21.0896,-89.4833 -86.6972,-138.7684 -156.7771,-117.7721 -44.7611,13.4109 -88.0656,74.6506 -93.4331,132.131 -5.6905,60.933 16.9942,133.06191 55.9406,177.87091 35.9677,41.3821 97.2266,54.6517 132.9048,28.7888 z m -1559.688365,70.3463 c -26.4626,-8.637 -54.950895,-32.0472 -54.950895,-45.1553 0,-15.4064 15.303795,-65.1648 34.046595,-110.6986 9.331,-22.66721 44.5628,-91.77641 78.294305,-153.57601 102.1078,-187.0753 122.5076,-237.3205 106.3597,-261.966 -10.5445,-16.09328 -29.7298,-23.77082 -99.1007,-39.65858 -69.883105,-16.00505 -89.834805,-25.29789 -89.834805,-41.84166 0,-15.55866 17.2179,-22.60133 62.899,-25.7278 54.505905,-3.73054 202.773805,6.2266 219.199705,14.72055 17.1576,8.87267 27.2266,24.7145 30.3077,47.68304 4.289,31.98079 -16.0885,78.31195 -117.8902,268.03855 -89.1976,166.2346 -107.0299,216.89741 -87.3612,248.20131 14.8985,23.7132 32.1676,29.6681 96.4134,33.2464 64.94579,3.6172 79.3231,8.5276 77.18469,26.3611 -3.4956,29.138 -49.6657,42.3985 -157.1136,45.124 -60.329095,1.5303 -82.484295,0.461 -98.453695,-4.751 z m 439.517405,2.2452 c -47.1423,-6.0862 -71.5214,-23.8169 -94.6017,-68.8039 -11.9661,-23.3247 -12.921,-29.0773 -12.921,-77.8471 0,-47.29911 1.218,-55.22561 11.9649,-77.84701 19.5327,-41.1178 52.5244,-67.9385 132.2811,-107.5391 35.2098,-17.4824 50.3717,-32.7552 50.3717,-50.7407 0,-18.3194 -5.5707,-22.8818 -46.329,-37.9429 -39.6036,-14.6346 -54.4783,-30.3542 -46.1075,-48.7261 7.5274,-16.5216 24.8255,-21.9944 69.7784,-22.0767 64.2062,-0.1173 107.9043,25.0972 132.046,76.1937 16.2396,34.3719 22.1988,63.7048 25.743,126.7225 1.4874,26.4451 5.9369,74.8705 9.8875,107.6121 15.38079,127.47711 0.52669,170.32841 -62.5923,180.56331 -32.7513,5.3108 -129.8143,5.5581 -169.5211,0.4323 z m 77.603,-84.6588 c 17.2789,-8.9352 36.5026,-29.3912 47.05,-50.0659 7.3672,-14.4409 8.8251,-24.6333 7.4413,-52.03091 -1.6325,-32.3257 -2.5627,-34.8443 -18.1597,-49.1376 -17.9795,-16.4767 -44.5124,-23.5402 -68.574,-18.2554 -30.4086,6.6789 -77.1686,70.4421 -77.2808,105.38261 -0.077,20.4284 18.2261,53.1393 36.5887,65.43 13.50439,9.0391 19.5641,10.2666 38.4947,7.798 12.3571,-1.6114 27.8548,-5.7158 34.4398,-9.1208 z m 1699.23056,84.479 c -50.0745,-6.845 -73.5218,-24.7723 -95.8998,-73.3218 -14.4772,-31.4096 -14.9476,-34.2523 -13.0846,-79.1948 3.4084,-82.20891 31.01,-119.75461 123.1265,-167.48291 58.2343,-30.1727 72.8635,-42.741 72.8635,-62.5985 0,-18.3194 -5.5709,-22.8818 -46.3292,-37.9429 -39.6034,-14.6346 -54.4781,-30.3542 -46.1073,-48.7261 7.242,-15.8944 24.3199,-21.7436 64.9611,-22.2492 60.0471,-0.7472 99.4799,17.3505 127.031,58.2999 20.0917,29.8629 28.2211,59.4646 33.4743,121.8926 2.4361,28.9637 7.792,85.2269 11.9012,125.0293 14.2345,137.88431 1.544,175.65661 -62.505,186.04231 -33.2488,5.3916 -130.7731,5.5366 -169.4316,0.2528 z m 86.5196,-90.5745 c 29.5194,-18.1832 46.9103,-51.2572 47.1313,-89.63501 0.2686,-46.3701 -18.024,-68.4639 -61.6285,-74.4407 -14.5492,-1.9941 -25.1146,-0.5092 -37.2099,5.2308 -30.2034,14.3327 -66.5382,69.2057 -66.7665,100.83321 -0.144,20.3728 18.1348,53.115 36.5334,65.43 13.5238,9.0525 19.6027,10.2786 38.9233,7.8517 12.5929,-1.5819 31.951,-8.4533 43.0169,-15.27 z m -1531.66657,66.9738 c -16.283,-31.4872 -20.857,-79.4518 -23.40299,-245.38881 -2.6308,-171.501 -1.47221,-183.5994 18.6107,-194.3477 5.2701,-2.8203 32.2913,-6.6312 60.0468,-8.4686 27.7564,-1.8374 86.1988,-7.0038 129.87332,-11.4808 65.5633,-6.721 85.3646,-7.214 113.57804,-2.8278 47.2219,7.3415 75.3163,20.5653 100.1939,47.1615 35.2553,37.6914 45.8945,72.4546 53.0741,173.4216 7.0665,99.37561 0.6182,201.05531 -14.7224,231.98951 -10.4794,21.1383 -11.8174,22.1304 -29.0721,21.5547 -23.1961,-0.774 -35.7355,-15.7136 -46.4671,-55.36 -6.6917,-24.7209 -7.406,-41.4247 -4.8248,-112.87331 2.2744,-62.9495 1.4286,-93.0285 -3.391,-120.6361 -9.0791,-52.0071 -12.9532,-57.9446 -35.8044,-54.8796 -48.81304,6.5473 -67.31014,61.7509 -58.60954,174.9207 4.8265,62.77761 0.4274,105.82641 -14.324,140.11161 -6.7282,15.6406 -13.0453,23.4099 -20.5684,25.2982 -43.2654,10.8589 -59.75512,-38.3201 -54.73552,-163.23901 2.8407,-70.6748 -2.1233,-133.8665 -12.0311,-153.1629 -8.7213,-16.9843 -23.4106,-29.8878 -34.0253,-29.8878 -19.8419,0 -41.997,25.4899 -52.6552,60.5797 -8.7951,28.9544 -9.3585,37.1568 -5.7073,83.082 6.3842,80.31521 4.5975,153.33791 -4.2334,173.02741 -15.9723,35.6095 -47.6844,46.7736 -60.80231,21.4055 z m 1001.41067,-7.2447 c -15.0276,-57.5678 -23.3223,-158.91971 -23.3276,-285.05761 0,-114.5975 0.6335,-116.2165 52.6429,-133.5797 56.0226,-18.7027 105.5155,-27.6651 153.4045,-27.7791 70.0684,-0.166 106.9222,15.197 118.1452,49.2524 8.0693,24.487 3.835,37.5944 -15.0558,46.6029 -14.7109,7.0149 -17.0043,6.9678 -35.3693,-0.7266 -41.7259,-17.4822 -63.8292,-23.953 -74.7126,-21.8725 -29.0567,5.5546 -69.0594,67.882 -96.2234,149.9224 -9.8638,29.7922 -12.8364,49.976 -15.916,108.07511 -5.537,104.4497 -14.6735,132.3348 -43.3599,132.3348 -14.3446,0 -16.1443,-1.5274 -20.228,-17.1721 z"
         id="path6435-7"
         inkscape:connector-curvature="0"
         sodipodi:nodetypes="csccscscccsssscsssssssssscsscscssccscscscsscscscsssscsscsscssssscssscscsscssssssssssscssscsssssssssssssssssssscsssssscscscsccsscssscssssscscssssccsccsssssssscsscscssccssccscssssscscssssccccscccsssssccsscss" />
    </g>
  </g>
</svg>
